# xmcd CD database file
#
# Track frame offsets:
#	150
#	18138
#	38021
#	65128
#	91223
#	112038
#	130050
#	149006
#	171929
#	203752
#	229925
#
# Disc length: 3451 seconds
#
# Revision: 0
# Processed by: cddbd v1.5.1PL2 Copyright (c) Steve Scherf et al.
# Submitted via: CDex 1.51
#
DISCID=990d790b
DTITLE=Paul Brodys Tango Toy - South Klezmer Suite
DYEAR=2002
DGENRE=Jazz
TTITLE0=Tones from Babel
TTITLE1=Light and Dark Hora
TTITLE2=Be Simple Bulgar
TTITLE3=Sound Love
TTITLE4=When Two Sing
TTITLE5=Turkish 2 Stomp
TTITLE6=Gutbye For Jetzt
TTITLE7=Better than Ham {for A.B.}
TTITLE8=Aqui Estamos Juntos
TTITLE9=Mind Ladder
TTITLE10=End Game
EXTD=YEAR: 2002
EXTT0=
EXTT1=
EXTT2=
EXTT3=
EXTT4=
EXTT5=
EXTT6=
EXTT7=
EXTT8=
EXTT9=
EXTT10=
PLAYORDER=
